# xmcd
#
# Track frame offsets:
#       150
#       14087
#       26884
#       40647
#       53656
#       64830
#       76838
#       90894
#       101368
#       116815
#       128052
#       147877
#
# Disc length: 2167 seconds
#
# Revision: 0
# Processed by: cddbd v1.4PL0 Copyright (c) Steve Scherf et al.
# Submitted via: CD-DA_X-Tractor v0.21
#
DISCID=9408750c
DTITLE=Slim Dusty - Give me the road
DYEAR=1900
DGENRE=
TTITLE0=Give me the road
TTITLE1=The angel of Goulburn Hill
TTITLE2=You take her from Nerrandera
TTITLE3=The boss man
TTITLE4=We've been truckin too
TTITLE5=Danger! Road Train
TTITLE6=Highway one
TTITLE7=Roaring through  the night
TTITLE8=Kelly's offsider
TTITLE9=Just can't miss it mate
TTITLE10=The great australian whinger
TTITLE11=Road train blues
EXTD=
EXTT0=
EXTT1=
EXTT2=
EXTT3=
EXTT4=
EXTT5=
EXTT6=
EXTT7=
EXTT8=
EXTT9=
EXTT10=
EXTT11=
PLAYORDER=
